# xmcd
#
# Track frame offsets:
#  150
#  2660
#  30230
#  52735
#  75670
#  96003
#  117758
#  144789
#  179646
#  202294
#  223983
#  256433
#  271728
#  283891
#  301669
#  314769
#
# Disc length: 4536 seconds
#
# Revision: 0
# Processed by: cddbd v1.5.1PL0 Copyright (c) Steve Scherf et al.
# Submitted via: Collectorz.com_Music_Collector 6.9
#
DISCID=df11b610
DTITLE=The Black Crowes - Live @ The Fillmore
DYEAR=2005
DGENRE=
TTITLE0=Intro
TTITLE1=Sunday Night Buttermilk Walz
TTITLE2=Darlin Of the Underground
TTITLE3=Sin City
TTITLE4=Tonight ill be staying here with you
TTITLE5=Wyoming and me 
TTITLE6=Better when youre not alone
TTITLE7=Feathers
TTITLE8=Under a mountain
TTITLE9=Evil Eye
TTITLE10=She gave a good sunflower
TTITLE11=Happy
TTITLE12=Encore break
TTITLE13=Happiness is a warm gun
TTITLE14=Encore break #2
TTITLE15=Willin
EXTD=
EXTT0=
EXTT1=
EXTT2=
EXTT3=
EXTT4=
EXTT5=
EXTT6=
EXTT7=
EXTT8=
EXTT9=
EXTT10=
EXTT11=
EXTT12=
EXTT13=
EXTT14=
EXTT15=
PLAYORDER=
